<?xml version="1.0" encoding="UTF-8"?>
<svg version="1.1" xmlns="http://www.w3.org/2000/svg" width="512" height="512">
<path d="M0 0 C54.75028733 36.42972786 79.10969467 114.13358278 91.4375 174.8046875 C93.92995005 187.63519328 95.73385979 200.53968592 97.22265625 213.51953125 C97.35247894 214.63864395 97.35247894 214.63864395 97.48492432 215.78036499 C98.48377658 224.55893526 99.14290085 233.27121856 99.33984375 242.10546875 C99.38765479 243.76107123 99.43558622 245.41667024 99.48364258 247.07226562 C99.5721373 250.2253204 99.58739905 253.36753532 99.5612793 256.52148438 C99.53444442 264.1645834 99.53444442 264.1645834 103.43701172 270.41894531 C106.35266783 272.13916788 108.71395769 273.35405151 112.03515625 274.01953125 C114.26720292 273.2955385 114.26720292 273.2955385 116.03515625 272.01953125 C119.10633638 270.48394119 121.72526497 270.40856566 125.03515625 271.01953125 C147.19622611 280.20248222 162.79339352 300.60530371 172.03515625 322.01953125 C177.04910821 335.39006982 178.35737663 348.38055468 178.37109375 362.52734375 C178.37753704 364.10432043 178.38426648 365.68129596 178.39126587 367.25827026 C178.40316417 370.54444145 178.40695399 373.83050805 178.40576172 377.11669922 C178.40555792 381.30720386 178.43295578 385.49703502 178.46730614 389.68737984 C178.48963315 392.93723584 178.49359764 396.1869305 178.49254227 399.43685532 C178.4948858 400.98128473 178.50363821 402.52571945 178.519207 404.07007217 C178.60627605 413.59021158 178.43008835 421.78580495 172.0703125 429.359375 C171.41933594 429.88660156 170.76835937 430.41382813 170.09765625 430.95703125 C169.44925781 431.50230469 168.80085938 432.04757812 168.1328125 432.609375 C161.85642801 436.82869493 155.37274572 437.11862166 148.03515625 436.01953125 C142.36381283 433.92568083 137.24170221 431.07100377 132.03515625 428.01953125 C131.29974609 427.59091797 130.56433594 427.16230469 129.80664062 426.72070312 C125.75370702 424.34293593 121.72982963 421.92027639 117.71875 419.47265625 C110.94509518 415.34157214 104.11413866 411.3081828 97.28515625 407.26953125 C96.06335429 406.54629303 94.84159226 405.82298736 93.61987305 405.09960938 C90.7586222 403.4057059 87.89704704 401.71235323 85.03515625 400.01953125 C84.89416504 400.80271729 84.75317383 401.58590332 84.60791016 402.39282227 C83.1086133 409.26875361 76.67168886 415.14297719 71.03515625 419.01953125 C61.30194138 424.51862196 51.36050565 424.16870963 40.44995117 424.16479492 C39.08732512 424.16779174 37.72469992 424.17119547 36.36207581 424.17497253 C32.68010562 424.18376345 28.99815871 424.18614857 25.31617904 424.18678832 C23.01044396 424.1875016 20.70471471 424.18964117 18.39898109 424.19228554 C10.33979546 424.20152266 2.2806263 424.20562247 -5.77856445 424.20483398 C-13.26640942 424.2042336 -20.75418226 424.21478186 -28.24200898 424.23057765 C-34.69154916 424.24369367 -41.14106587 424.24901618 -47.59061927 424.24837857 C-51.43340738 424.24812479 -55.27613131 424.25090983 -59.11890602 424.26155663 C-62.73624542 424.27130632 -66.35346017 424.27127022 -69.97080421 424.26403999 C-71.91404456 424.26251204 -73.85728507 424.27079258 -75.80050659 424.27947998 C-88.87058056 424.23308104 -99.96574967 422.91450867 -109.77734375 413.64453125 C-113.43327398 409.75054045 -116.96484375 405.55123313 -116.96484375 400.01953125 C-120.58328863 402.13625625 -124.20115416 404.25396768 -127.81854248 406.37249756 C-129.12332794 407.13655306 -130.42821874 407.9004287 -131.73321533 408.66412354 C-139.05723076 412.95077279 -146.37180016 417.25186089 -153.65625 421.60546875 C-154.87719489 422.33398835 -156.09814211 423.06250405 -157.3190918 423.79101562 C-159.62162113 425.16525422 -161.92056159 426.54497703 -164.21801758 427.92773438 C-174.10047795 433.8278921 -181.15775723 437.29241418 -192.96484375 436.01953125 C-199.55372351 434.29361382 -204.28000438 429.61650348 -207.96484375 424.01953125 C-209.74744251 419.54059059 -210.22135963 415.77297199 -210.23950195 410.96704102 C-210.24461288 410.28800217 -210.24972382 409.60896332 -210.25498962 408.90934753 C-210.26882369 406.67645296 -210.26793182 404.44386972 -210.265625 402.2109375 C-210.26951881 400.64118844 -210.27385488 399.07144042 -210.27861023 397.50169373 C-210.28606179 394.21081127 -210.28579146 390.92003606 -210.28051758 387.62915039 C-210.27476178 383.45376978 -210.291564 379.27883841 -210.31486225 375.10353184 C-210.32975516 371.85771706 -210.3304498 368.61200616 -210.32735252 365.36616325 C-210.32785921 363.82949887 -210.33297141 362.29282763 -210.34316444 360.75619698 C-210.50963851 332.12095532 -200.62299977 308.35038717 -180.90234375 287.51953125 C-171.22080485 278.0513596 -159.45152115 271.54915798 -147.65625 265.0703125 C-143.61850706 262.84835928 -139.69235539 260.45928005 -135.78515625 258.015625 C-133.96484375 257.01953125 -133.96484375 257.01953125 -131.96484375 257.01953125 C-131.95549805 256.45073242 -131.94615234 255.88193359 -131.93652344 255.29589844 C-130.36995175 177.30520185 -111.61924861 86.24370255 -58.96484375 26.01953125 C-57.91103516 24.80330078 -57.91103516 24.80330078 -56.8359375 23.5625 C-54.58253381 21.01125512 -52.28695024 18.5083332 -49.96484375 16.01953125 C-49.18238281 15.17132812 -48.39992187 14.323125 -47.59375 13.44921875 C-34.50647195 -0.245309 -18.35580461 -10.3266516 0 0 Z " fill="#0F0E0F" transform="translate(271.96484375,3.98046875)"/>
<path d="M0 0 C38.28 0 76.56 0 116 0 C126.55173445 23.44829878 126.55173445 23.44829878 129.1875 30.875 C129.51153809 31.77879395 129.83557617 32.68258789 130.16943359 33.61376953 C133.67139105 43.59495238 136.39186334 53.75561552 139 64 C139.53245499 66.05210853 140.06500927 68.1041913 140.59765625 70.15625 C141.1289141 72.22883134 141.65889305 74.30174097 142.1875 76.375 C142.42549316 77.30038574 142.66348633 78.22577148 142.90869141 79.17919922 C146.24898398 92.51462094 148.45070552 105.97918287 150.0625 119.625 C150.14649048 120.33164795 150.23048096 121.0382959 150.3170166 121.76635742 C152.92073006 143.8788402 154.1722748 165.86575375 154.1875 188.125 C154.18858765 188.97006104 154.18967529 189.81512207 154.1907959 190.68579102 C154.18821115 208.35682681 153.3897233 225.92117477 151.5625 243.5 C151.44068359 244.74007812 151.31886719 245.98015625 151.19335938 247.2578125 C150.41320723 254.93806677 149.27589943 262.34460341 148 270 C88.6 270 29.2 270 -32 270 C-35.47354015 246.84306569 -35.47354015 246.84306569 -36.125 239 C-36.19847656 238.20851563 -36.27195313 237.41703125 -36.34765625 236.6015625 C-37.82729407 219.72849969 -38.23788864 202.80525818 -38.25 185.875 C-38.25100708 184.88064941 -38.25201416 183.88629883 -38.25305176 182.86181641 C-38.24054837 164.41859002 -37.15748995 146.30901623 -35 128 C-34.84824141 126.66736222 -34.6968758 125.33467964 -34.54589844 124.00195312 C-32.77811237 108.56224258 -30.3559808 93.45807925 -26.58496094 78.37988281 C-26.03742311 76.15225397 -25.52909483 73.9205753 -25.0390625 71.6796875 C-21.22554641 54.33994676 -15.80582681 37.57383832 -9.3125 21.0625 C-8.84900146 19.88389404 -8.38550293 18.70528809 -7.90795898 17.4909668 C-5.50034609 11.4712849 -2.91442585 5.8288517 0 0 Z " fill="#EDE6E6" transform="translate(198,92)"/>
<path d="M0 0 C9.1380632 9.07155619 16.52641883 21.34234286 16.94921875 34.44140625 C16.95447483 36.16145819 16.94907753 37.88157222 16.93359375 39.6015625 C16.94519531 40.88450195 16.94519531 40.88450195 16.95703125 42.19335938 C16.910956 57.2945221 10.76653715 69.94893358 0.5859375 80.92578125 C-10.24610328 91.24669125 -24.32768687 96.26709328 -39.12890625 96.1640625 C-40.09159424 96.15834229 -41.05428223 96.15262207 -42.04614258 96.14672852 C-55.83635623 95.8022921 -67.81902953 89.82730222 -78.00390625 80.5390625 C-90.45491254 67.24798832 -93.87703196 52.04827517 -93.58984375 34.40234375 C-93.15922908 23.63484517 -88.49620908 15.26383236 -82.31640625 6.6640625 C-81.878125 6.02855469 -81.43984375 5.39304688 -80.98828125 4.73828125 C-73.32207774 -5.30629263 -61.0502168 -11.35847096 -49.00390625 -14.0859375 C-30.07007428 -15.36958712 -14.70156634 -12.47026479 0 0 Z " fill="#101011" transform="translate(294.31640625,148.3359375)"/>
<path d="M0 0 C10.63465261 3.49970133 10.63465261 3.49970133 14 7 C14.4487423 9.40055349 14.34059222 11.30775448 13.98828125 13.71875 C14.0047268 16.92015112 15.09147015 18.46633347 17 21 C19.08482487 22.54732121 19.08482487 22.54732121 21.5 23.75 C39.66631109 34.13074919 50.6734921 50.0204763 57.1875 69.5625 C59.31205933 78.55102026 59.16304172 87.62467742 59.16796875 96.80859375 C59.17118756 98.2258355 59.17455209 99.64307692 59.17805481 101.06031799 C59.18400508 104.01116712 59.18589853 106.9619871 59.18530273 109.9128418 C59.18520035 113.6980891 59.19894859 117.48315203 59.21607494 121.26835537 C59.22716461 124.185927 59.22922303 127.10345323 59.22869301 130.02104378 C59.22987401 131.41773182 59.2343025 132.81442099 59.24202538 134.21108818 C59.25178042 136.15429149 59.24769465 138.09754956 59.24291992 140.04077148 C59.24434494 141.14613754 59.24576996 142.2515036 59.24723816 143.3903656 C59 146 59 146 57 148 C52.10513569 147.72767517 48.9112488 146.01819369 44.8125 143.4375 C43.49314015 142.6195551 42.17273669 141.80329231 40.8515625 140.98828125 C40.10036133 140.52244629 39.34916016 140.05661133 38.57519531 139.57666016 C33.31970693 136.35899387 27.99629137 133.2536836 22.6875 130.125 C12.05699936 123.8592775 1.51657442 117.45465615 -9 111 C-8.82871582 109.77297363 -8.65743164 108.54594727 -8.48095703 107.28173828 C-3.49118185 71.38960165 -0.66757673 36.22824932 0 0 Z " fill="#ED3939" transform="translate(371,272)"/>
<path d="M0 0 C0.01401855 1.18529297 0.01401855 1.18529297 0.02832031 2.39453125 C0.50100379 34.83359347 3.45708616 67.02576392 9 99 C0.07703306 104.37209412 -8.85229757 109.73314629 -17.8125 115.04296875 C-18.67585716 115.55466866 -18.67585716 115.55466866 -19.55665588 116.07670593 C-22.47195346 117.80370135 -25.38892133 119.52779895 -28.30834961 121.24780273 C-33.19835948 124.13316439 -38.07799048 127.02285254 -42.87890625 130.0546875 C-43.57072998 130.4875708 -44.26255371 130.9204541 -44.9753418 131.36645508 C-46.71741188 132.46328085 -48.4491015 133.57654884 -50.1796875 134.69140625 C-53.38201576 136.17725108 -54.71676714 136.17090204 -58 135 C-59.82047152 133.17952848 -59.15623347 130.33075356 -59.17700195 127.88232422 C-59.18983719 126.56940399 -59.20267242 125.25648376 -59.21589661 123.90377808 C-59.22407311 122.45408507 -59.23151508 121.00438777 -59.23828125 119.5546875 C-59.24235678 118.82411259 -59.2464323 118.09353767 -59.25063133 117.34082413 C-59.2715436 113.45915253 -59.28581165 109.57751661 -59.29516602 105.69580078 C-59.30612202 101.72309293 -59.34037799 97.75096223 -59.38033772 93.77845573 C-59.4067823 90.69649376 -59.41488311 87.61466196 -59.41844749 84.53259659 C-59.42325787 83.07126175 -59.43470885 81.60993046 -59.45348549 80.14870834 C-59.70684857 59.08821404 -53.03777504 40.9881257 -38.625 25.4375 C-37.75875 24.633125 -36.8925 23.82875 -36 23 C-35.41581299 22.43676025 -34.83162598 21.87352051 -34.22973633 21.29321289 C-28.05085928 15.52814192 -21.33765345 11.25759416 -14.0625 7 C-12.91554596 6.31458741 -11.76905862 5.62839321 -10.62304688 4.94140625 C-2.28628804 0 -2.28628804 0 0 0 Z " fill="#ED3939" transform="translate(141,284)"/>
<path d="M0 0 C56.76 0 113.52 0 172 0 C169.40575593 18.1597085 169.40575593 18.1597085 164.375 23.25 C160.69069916 25.96474799 158.73323599 26.12918841 154.18121338 26.14717102 C152.32215363 26.15790398 152.32215363 26.15790398 150.42553711 26.16885376 C149.04443384 26.17169416 147.66333031 26.17440587 146.28222656 26.17700195 C144.83355546 26.18326569 143.38488598 26.18991241 141.93621826 26.19691467 C137.9939164 26.2143338 134.05162667 26.22487914 130.10929585 26.2331202 C127.6465083 26.23826895 125.18372452 26.24434477 122.72093964 26.25063133 C115.01624112 26.26968687 107.31155221 26.28391664 99.60683465 26.2922433 C90.71176268 26.30201489 81.81693961 26.32833069 72.92195535 26.36874419 C66.04799063 26.39890392 59.17409726 26.41371207 52.30006766 26.41702431 C48.19401499 26.41937518 44.08822812 26.42833989 39.9822464 26.45348549 C36.117859 26.47676861 32.25391233 26.48099872 28.38947296 26.47072411 C26.97292617 26.47022867 25.55635767 26.47655155 24.13987732 26.49028015 C10.7776483 26.61251625 10.7776483 26.61251625 6 22 C4.609375 19.58984375 4.609375 19.58984375 3.75 16.9375 C3.45609375 16.08027344 3.1621875 15.22304688 2.859375 14.33984375 C1.64479712 9.61955245 0.87189631 4.79542972 0 0 Z " fill="#A99999" transform="translate(170,381)"/>
<path d="M0 0 C7.74794959 5.19481572 12.82974434 12.68460648 14.86328125 21.75 C16.35853394 34.04706345 14.91042295 43.80485032 7.2578125 53.859375 C0.76964983 61.07186937 -8.74737093 64.9962596 -18.28125 65.96875 C-28.13186387 66.38278631 -36.5853577 62.95390629 -44.13671875 56.75 C-51.35911458 49.98435648 -55.43675269 42.11685589 -56.375 32.2421875 C-56.66476453 22.02417508 -53.76903544 13.68632059 -47.19140625 5.82421875 C-34.20697756 -7.28363607 -15.76965938 -9.22539488 0 0 Z " fill="#58B5E8" transform="translate(276.13671875,159.25)"/>
<path d="M0 0 C16.22820193 10.60863876 35.70365614 32.11096843 42 51 C11.31 51 -19.38 51 -51 51 C-49.59312687 47.48281716 -48.50984576 45.00674207 -46.49609375 41.9609375 C-46.0077002 41.22133789 -45.51930664 40.48173828 -45.01611328 39.71972656 C-44.4951709 38.9459668 -43.97422852 38.17220703 -43.4375 37.375 C-42.89593262 36.57030273 -42.35436523 35.76560547 -41.79638672 34.93652344 C-35.54161622 25.7401804 -28.65196933 17.50136144 -20.875 9.5625 C-20.30088379 8.97049805 -19.72676758 8.37849609 -19.13525391 7.76855469 C-13.62786109 2.27219873 -8.11955564 -2.75239174 0 0 Z " fill="#ED3939" transform="translate(261,21)"/>
<path d="M0 0 C2.8100346 1.79363911 4.50940468 3.01880935 6 6 C6.11649308 7.85202747 6.1696717 9.70817815 6.19287109 11.5637207 C6.21696548 13.31112297 6.21696548 13.31112297 6.24154663 15.09382629 C6.28590456 20.42380314 6.32750092 25.75363177 6.35009766 31.08374023 C6.36343324 33.89787328 6.39127719 36.71128052 6.43212891 39.52514648 C6.49093018 43.57548268 6.50875754 47.62504049 6.5234375 51.67578125 C6.54610687 52.93425369 6.56877625 54.19272614 6.59213257 55.48933411 C6.56856308 65.20141903 6.56856308 65.20141903 3.62353516 68.29125977 C0.79917192 70.13080176 -0.65667115 70.67723951 -4 70.625 C-5.2375 70.64433594 -5.2375 70.64433594 -6.5 70.6640625 C-9.23593858 69.93732882 -10.97323559 68.96011991 -12.93258667 66.90414429 C-15.43972311 62.4316973 -14.68173665 56.75842389 -14.62890625 51.78125 C-14.63131821 50.49061646 -14.63373016 49.19998291 -14.63621521 47.87023926 C-14.63906809 45.1431516 -14.62442464 42.41688759 -14.59692383 39.68994141 C-14.56283963 36.20267058 -14.56886282 32.71687166 -14.5875864 29.22953033 C-14.60072503 25.89245847 -14.58243329 22.55581162 -14.56640625 19.21875 C-14.57136612 17.96968872 -14.57632599 16.72062744 -14.58143616 15.43371582 C-14.56559982 14.26900757 -14.54976349 13.10429932 -14.53344727 11.90429688 C-14.5241494 10.37138 -14.5241494 10.37138 -14.5146637 8.80749512 C-13.86603924 5.26924283 -12.45813907 3.57780118 -10 1 C-6.79826746 -0.60086627 -3.47422941 -0.49917089 0 0 Z " fill="#0D0D0E" transform="translate(260,442)"/>
<path d="M0 0 C3.18637361 0.64073817 4.95955678 2.09960721 7.15625 4.43359375 C9.57886737 9.27882849 8.46882918 16.67553803 8.50634766 22.06298828 C8.52288246 23.80303342 8.55014007 25.54301134 8.58837891 27.28271484 C8.64333652 29.79690635 8.66505068 32.30950629 8.6796875 34.82421875 C8.70235687 35.59630676 8.72502625 36.36839478 8.74838257 37.16387939 C8.732821 41.17084538 8.35511728 43.70401365 5.83837891 46.90527344 C2.4935812 50.05826134 0.72319374 50.51371557 -3.84375 50.43359375 C-7.85894063 48.91842747 -9.44743353 48.02806845 -11.84375 44.43359375 C-12.07623271 41.518946 -12.1958104 38.70228141 -12.21484375 35.78515625 C-12.22387222 34.93561371 -12.2329007 34.08607117 -12.24220276 33.21078491 C-12.25670742 31.41367111 -12.26559254 29.61650447 -12.26928711 27.81933594 C-12.28117777 25.07526238 -12.33035312 22.33344225 -12.38085938 19.58984375 C-12.39032457 17.84245888 -12.39755914 16.09506021 -12.40234375 14.34765625 C-12.42187607 13.52979645 -12.44140839 12.71193665 -12.46153259 11.86929321 C-12.4274265 7.54412068 -12.23407194 5.92596741 -9.45141602 2.41577148 C-6.01090138 -0.19948348 -4.16702524 -0.22918639 0 0 Z " fill="#0D0D0E" transform="translate(310.84375,441.56640625)"/>
<path d="M0 0 C0.75925781 -0.04898437 1.51851562 -0.09796875 2.30078125 -0.1484375 C6.00770489 0.66453757 7.35231726 2.4271267 9.6875 5.375 C10.41147319 8.32721141 10.38933169 11.19014984 10.3515625 14.21875 C10.35634613 15.06546265 10.36112976 15.91217529 10.36605835 16.7845459 C10.36945175 18.5697618 10.36028841 20.35504032 10.33935547 22.14013672 C10.31257881 24.86697423 10.33911898 27.5896962 10.37109375 30.31640625 C10.36778955 32.05469655 10.36138309 33.7929843 10.3515625 35.53125 C10.36168365 36.34283569 10.37180481 37.15442139 10.38223267 37.99060059 C10.29438411 42.25066622 10.05596787 43.90633271 7.33349609 47.36914062 C4.26962724 49.69177824 2.51701562 50.29521842 -1.3125 50.375 C-5.83064572 49.29925102 -7.83393793 47.24052945 -10.3125 43.375 C-10.70325141 40.44215261 -10.87461522 37.8957247 -10.84375 34.96875 C-10.8475769 34.16642944 -10.85140381 33.36410889 -10.85534668 32.53747559 C-10.85806052 30.84642273 -10.85073624 29.15532752 -10.83398438 27.46435547 C-10.81256499 24.88283284 -10.83380161 22.3040928 -10.859375 19.72265625 C-10.85673163 18.07551472 -10.85160645 16.42837491 -10.84375 14.78125 C-10.85184692 14.01341187 -10.85994385 13.24557373 -10.86828613 12.45446777 C-10.78160569 7.47546566 -9.88984188 4.8588166 -6.3125 1.375 C-4.04001762 0.23875881 -2.52947236 0.11053157 0 0 Z " fill="#0D0D0E" transform="translate(203.3125,441.625)"/>
</svg>
